<svg width="12" height="16" viewBox="0 0 12 16" fill="none" xmlns="http://www.w3.org/2000/svg">
<path d="M11.25 4.25H9V3.5C9 2.70435 8.68393 1.94129 8.12132 1.37868C7.55871 0.816071 6.79565 0.5 6 0.5C5.20435 0.5 4.44129 0.816071 3.87868 1.37868C3.31607 1.94129 3 2.70435 3 3.5V4.25H0.75C0.551088 4.25 0.360322 4.32902 0.21967 4.46967C0.0790178 4.61032 0 4.80109 0 5V13.25C0 13.8467 0.237053 14.419 0.65901 14.841C1.08097 15.2629 1.65326 15.5 2.25 15.5H9.75C10.3467 15.5 10.919 15.2629 11.341 14.841C11.7629 14.419 12 13.8467 12 13.25V5C12 4.80109 11.921 4.61032 11.7803 4.46967C11.6397 4.32902 11.4489 4.25 11.25 4.25ZM4.5 3.5C4.5 3.10218 4.65804 2.72064 4.93934 2.43934C5.22064 2.15804 5.60218 2 6 2C6.39782 2 6.77936 2.15804 7.06066 2.43934C7.34196 2.72064 7.5 3.10218 7.5 3.5V4.25H4.5V3.5ZM10.5 13.25C10.5 13.4489 10.421 13.6397 10.2803 13.7803C10.1397 13.921 9.94891 14 9.75 14H2.25C2.05109 14 1.86032 13.921 1.71967 13.7803C1.57902 13.6397 1.5 13.4489 1.5 13.25V5.75H3V6.5C3 6.69891 3.07902 6.88968 3.21967 7.03033C3.36032 7.17098 3.55109 7.25 3.75 7.25C3.94891 7.25 4.13968 7.17098 4.28033 7.03033C4.42098 6.88968 4.5 6.69891 4.5 6.5V5.75H7.5V6.5C7.5 6.69891 7.57902 6.88968 7.71967 7.03033C7.86032 7.17098 8.05109 7.25 8.25 7.25C8.44891 7.25 8.63968 7.17098 8.78033 7.03033C8.92098 6.88968 9 6.69891 9 6.5V5.75H10.5V13.25Z" fill="white"/>
</svg>
