<svg width="16" height="15" viewBox="0 0 16 15" fill="none" xmlns="http://www.w3.org/2000/svg">
<path d="M8 3.75C7.25832 3.75 6.5333 3.96993 5.91661 4.38199C5.29993 4.79404 4.81928 5.37971 4.53545 6.06494C4.25162 6.75016 4.17736 7.50416 4.32206 8.23159C4.46675 8.95902 4.8239 9.6272 5.34835 10.1517C5.8728 10.6761 6.54098 11.0333 7.26841 11.1779C7.99584 11.3226 8.74984 11.2484 9.43506 10.9645C10.1203 10.6807 10.706 10.2001 11.118 9.58339C11.5301 8.9667 11.75 8.24168 11.75 7.5C11.75 6.50544 11.3549 5.55161 10.6517 4.84835C9.94839 4.14509 8.99456 3.75 8 3.75ZM8 9.75C7.55499 9.75 7.11998 9.61804 6.74997 9.37081C6.37996 9.12357 6.09157 8.77217 5.92127 8.36104C5.75097 7.9499 5.70642 7.4975 5.79323 7.06105C5.88005 6.62459 6.09434 6.22368 6.40901 5.90901C6.72368 5.59434 7.12459 5.38005 7.56105 5.29323C7.9975 5.20642 8.4499 5.25097 8.86104 5.42127C9.27217 5.59157 9.62357 5.87996 9.87081 6.24997C10.118 6.61998 10.25 7.05499 10.25 7.5C10.25 8.09674 10.0129 8.66903 9.59099 9.09099C9.16903 9.51295 8.59674 9.75 8 9.75ZM11.75 3C11.6017 3 11.4567 3.04399 11.3333 3.1264C11.21 3.20881 11.1139 3.32594 11.0571 3.46299C11.0003 3.60003 10.9855 3.75083 11.0144 3.89632C11.0434 4.0418 11.1148 4.17544 11.2197 4.28033C11.3246 4.38522 11.4582 4.45665 11.6037 4.48559C11.7492 4.51453 11.9 4.49968 12.037 4.44291C12.1741 4.38614 12.2912 4.29001 12.3736 4.16668C12.456 4.04334 12.5 3.89834 12.5 3.75C12.5 3.55109 12.421 3.36032 12.2803 3.21967C12.1397 3.07902 11.9489 3 11.75 3ZM15.455 4.68C15.4426 4.03907 15.3208 3.40496 15.095 2.805C14.8856 2.25905 14.5637 1.76324 14.1502 1.34977C13.7368 0.936303 13.241 0.614412 12.695 0.405C12.095 0.179174 11.4609 0.0574257 10.82 0.045C10.0925 -4.19095e-08 9.8525 0 8 0C6.1475 0 5.9075 -4.19095e-08 5.18 0.045C4.53907 0.0574257 3.90496 0.179174 3.305 0.405C2.75905 0.614412 2.26324 0.936303 1.84977 1.34977C1.4363 1.76324 1.11441 2.25905 0.905 2.805C0.679174 3.40496 0.557426 4.03907 0.545 4.68C0.5 5.415 0.5 5.655 0.5 7.5C0.5 9.345 0.5 9.585 0.545 10.32C0.557426 10.9609 0.679174 11.595 0.905 12.195C1.11441 12.741 1.4363 13.2368 1.84977 13.6502C2.26324 14.0637 2.75905 14.3856 3.305 14.595C3.90496 14.8208 4.53907 14.9426 5.18 14.955C5.93 14.955 6.1475 15 8 15C9.8525 15 10.0925 15 10.82 14.955C11.4609 14.9426 12.095 14.8208 12.695 14.595C13.241 14.3856 13.7368 14.0637 14.1502 13.6502C14.5637 13.2368 14.8856 12.741 15.095 12.195C15.3208 11.595 15.4426 10.9609 15.455 10.32C15.455 9.57 15.5 9.345 15.5 7.5C15.5 5.655 15.5 5.415 15.455 4.68ZM13.955 10.2525C13.9419 10.7285 13.8533 11.1993 13.6925 11.6475C13.5596 12.0018 13.3495 12.322 13.0775 12.585C12.8161 12.8571 12.4952 13.0651 12.14 13.1925C11.6908 13.3598 11.2168 13.4511 10.7375 13.4625C10.0325 13.4625 9.815 13.5 7.9925 13.5C6.17 13.5 5.96 13.5 5.255 13.5C4.77652 13.4876 4.30306 13.399 3.8525 13.2375C3.49824 13.1046 3.178 12.8945 2.915 12.6225C2.64287 12.3611 2.43494 12.0402 2.3075 11.685C2.14085 11.2382 2.04961 10.7667 2.0375 10.29C2.0375 9.54 2.0375 9.3525 2.0375 7.5375C2.0375 5.7225 2.0375 5.505 2.0375 4.785C2.05043 4.30591 2.14163 3.83215 2.3075 3.3825C2.43692 3.03047 2.64465 2.71247 2.915 2.4525C3.17643 2.18037 3.49731 1.97244 3.8525 1.845C4.30174 1.67767 4.77574 1.58642 5.255 1.575C5.96 1.5 6.1775 1.5 8 1.5C9.8225 1.5 10.04 1.5 10.745 1.5C11.2266 1.51225 11.7029 1.60346 12.155 1.77C12.507 1.89942 12.825 2.10715 13.085 2.3775C13.3571 2.63893 13.5651 2.95981 13.6925 3.315C13.8761 3.77142 13.9801 4.25594 14 4.7475C14 5.4975 14.0375 5.685 14.0375 7.5C14.0375 9.315 14 9.5325 14 10.2525H13.955Z" fill="white"/>
</svg>
