<svg width="16" height="16" viewBox="0 0 16 16" fill="none" xmlns="http://www.w3.org/2000/svg">
<path d="M13.6625 8.75002C13.4975 8.75002 13.325 8.69752 13.16 8.66002C12.8258 8.58639 12.4975 8.48864 12.1775 8.36752C11.8295 8.24095 11.4471 8.24752 11.1037 8.38598C10.7603 8.52444 10.4803 8.785 10.3175 9.11752L10.1525 9.45502C9.42198 9.04866 8.75071 8.54395 8.15747 7.95502C7.56855 7.36179 7.06384 6.69052 6.65747 5.96002L6.97247 5.75002C7.305 5.58721 7.56556 5.30717 7.70402 4.96379C7.84248 4.62041 7.84905 4.23796 7.72247 3.89002C7.60339 3.56934 7.50568 3.24112 7.42997 2.90752C7.39247 2.74252 7.36247 2.57002 7.33997 2.39752C7.2489 1.86924 6.97219 1.39083 6.55969 1.04845C6.14719 0.706076 5.626 0.52223 5.08997 0.530023H2.83997C2.51675 0.526988 2.19666 0.593633 1.90151 0.725421C1.60635 0.857209 1.34306 1.05105 1.12955 1.29373C0.916036 1.53642 0.757324 1.82227 0.664214 2.13181C0.571104 2.44135 0.545783 2.76732 0.589973 3.08752C0.989527 6.22956 2.42449 9.14893 4.66821 11.3845C6.91193 13.6201 9.8365 15.0444 12.98 15.4325H13.265C13.818 15.4333 14.352 15.2304 14.765 14.8625C15.0022 14.6503 15.1918 14.3902 15.3211 14.0993C15.4504 13.8084 15.5164 13.4934 15.515 13.175V10.925C15.5058 10.4041 15.3161 9.90244 14.9782 9.50577C14.6404 9.10911 14.1753 8.84199 13.6625 8.75002ZM14.0375 13.25C14.0373 13.3565 14.0145 13.4618 13.9706 13.5587C13.9266 13.6557 13.8625 13.7422 13.7825 13.8125C13.6989 13.8853 13.601 13.9396 13.495 13.9719C13.389 14.0042 13.2774 14.0138 13.1675 14C10.3586 13.6399 7.74965 12.3549 5.75201 10.3477C3.75437 8.34059 2.48178 5.72553 2.13497 2.91502C2.12304 2.80516 2.1335 2.69402 2.16572 2.58832C2.19795 2.48261 2.25128 2.38454 2.32247 2.30002C2.39276 2.22002 2.47927 2.1559 2.57626 2.11194C2.67325 2.06797 2.77848 2.04516 2.88497 2.04502H5.13497C5.30938 2.04114 5.47969 2.09818 5.61658 2.20633C5.75347 2.31447 5.84838 2.46695 5.88497 2.63752C5.91497 2.84252 5.95247 3.04502 5.99747 3.24502C6.08411 3.64038 6.19942 4.02891 6.34247 4.40752L5.29247 4.89502C5.2027 4.93621 5.12194 4.99473 5.05484 5.06722C4.98774 5.13971 4.93562 5.22473 4.90148 5.31742C4.86733 5.4101 4.85183 5.50862 4.85586 5.60731C4.85989 5.70601 4.88338 5.80293 4.92497 5.89252C6.00437 8.20459 7.86291 10.0631 10.175 11.1425C10.3576 11.2175 10.5624 11.2175 10.745 11.1425C10.8385 11.1091 10.9245 11.0574 10.9979 10.9904C11.0712 10.9235 11.1306 10.8426 11.1725 10.7525L11.6375 9.70252C12.0252 9.84118 12.4209 9.95639 12.8225 10.0475C13.0225 10.0925 13.225 10.13 13.43 10.16C13.6005 10.1966 13.753 10.2915 13.8612 10.4284C13.9693 10.5653 14.0264 10.7356 14.0225 10.91L14.0375 13.25Z" fill="white"/>
</svg>
