<svg width="18" height="17" viewBox="0 0 18 17" fill="none" xmlns="http://www.w3.org/2000/svg">
<path d="M11.8077 9.64697C11.5887 9.41009 11.3426 9.19963 11.0747 9.01989C12.156 8.18386 12.9137 6.9986 13.2188 5.66626C13.2413 5.56998 13.2445 5.47019 13.2283 5.37265C13.2121 5.2751 13.1768 5.18172 13.1244 5.09788C13.072 5.01404 13.0035 4.94139 12.9229 4.88412C12.8423 4.82685 12.7511 4.78608 12.6547 4.76415C12.5583 4.74223 12.4585 4.7396 12.361 4.75639C12.2636 4.77319 12.1704 4.80909 12.0869 4.86203C12.0034 4.91496 11.9312 4.98389 11.8744 5.06485C11.8176 5.1458 11.7774 5.23719 11.7561 5.33374C11.614 5.95696 11.3378 6.5417 10.9465 7.04718C10.5552 7.55265 10.0584 7.9667 9.49072 8.26045V5.5015C9.48609 5.44631 9.47509 5.39184 9.45795 5.33918C9.45298 5.29581 9.44433 5.25295 9.43208 5.21105C9.40008 5.14285 9.3579 5.0799 9.30697 5.02437C9.29356 5.00844 9.28679 4.98743 9.27214 4.9727C9.2172 4.92198 9.15499 4.87975 9.08757 4.8474C9.06844 4.83719 9.0542 4.81994 9.0341 4.8114C8.97664 4.79226 8.91711 4.78001 8.85676 4.77491C8.81952 4.76401 8.78145 4.75619 8.74292 4.75152L8.2522 4.75H8.25C8.07455 4.74916 7.90441 4.81016 7.76945 4.92228C7.63449 5.0344 7.54334 5.19048 7.512 5.36311C7.48066 5.53574 7.51114 5.7139 7.59808 5.8663C7.68502 6.0187 7.82287 6.1356 7.98743 6.19649V9.8645C6.79892 8.63076 6.01194 7.06599 5.7301 5.37625C5.71366 5.27915 5.67825 5.18625 5.62589 5.10284C5.57354 5.01942 5.50527 4.94714 5.42498 4.89011C5.34469 4.83309 5.25396 4.79243 5.15796 4.77047C5.06196 4.74851 4.96257 4.74567 4.86547 4.76212C4.76838 4.77857 4.67547 4.81398 4.59206 4.86633C4.50865 4.91869 4.43637 4.98696 4.37934 5.06724C4.32231 5.14753 4.28166 5.23827 4.2597 5.33427C4.23773 5.43027 4.2349 5.52965 4.25134 5.62675C4.68964 8.23867 6.14613 10.5701 8.30127 12.1094C8.33201 12.1278 8.36405 12.144 8.39713 12.1578C8.4231 12.173 8.45003 12.1866 8.47774 12.1984C8.56147 12.2319 8.65057 12.2499 8.74072 12.2515C8.85106 12.2501 8.95969 12.224 9.05859 12.1751C9.06605 12.1716 9.07462 12.1732 9.08204 12.1695C9.14832 12.1349 9.20903 12.0906 9.26212 12.038C9.27278 12.0276 9.27992 12.0148 9.29 12.0039C9.33839 11.9507 9.37879 11.8908 9.40993 11.826C9.42037 11.8044 9.42988 11.7839 9.43826 11.7613C9.47122 11.6785 9.48899 11.5905 9.49072 11.5015L9.49109 9.907C9.95579 10.0434 10.3745 10.304 10.7021 10.6607L11.9381 12.0083C12.0046 12.0811 12.0848 12.1401 12.1741 12.1819C12.2634 12.2237 12.3601 12.2475 12.4587 12.2518C12.5572 12.2562 12.6556 12.2411 12.7482 12.2074C12.8409 12.1737 12.926 12.122 12.9987 12.0553C13.0714 11.9887 13.1302 11.9083 13.1718 11.8189C13.2134 11.7295 13.2369 11.6328 13.241 11.5342C13.2452 11.4357 13.2299 11.3373 13.1959 11.2448C13.162 11.1522 13.1102 11.0672 13.0433 10.9946L11.8077 9.64697ZM11.3046 0.25H6.70312C2.0852 0.25 0.75 1.58374 0.75 6.19507V10.7969C0.75 15.4148 2.08337 16.75 6.69544 16.75H11.2969C15.9148 16.75 17.25 15.4163 17.25 10.8049V6.20312C17.25 1.5852 15.9166 0.25 11.3046 0.25ZM15.75 10.8049C15.75 14.585 15.0842 15.25 11.2969 15.25H6.69544C2.91467 15.25 2.25 14.5842 2.25 10.7969V6.19507C2.25 2.41504 2.91578 1.75 6.70312 1.75H11.3046C15.0853 1.75 15.75 2.41578 15.75 6.20312V10.8049Z" fill="white"/>
</svg>
